<svg width="19" height="19" viewBox="0 0 19 19" fill="none" xmlns="http://www.w3.org/2000/svg">
<path d="M8.58252 1.44125C8.93614 0.558772 10.1854 0.558771 10.539 1.44125L12.2362 5.67674C12.382 6.04075 12.718 6.29367 13.1081 6.33323L17.4999 6.77851C18.3963 6.8694 18.7727 7.97054 18.1193 8.59109L14.699 11.8397C14.4345 12.0909 14.3188 12.461 14.393 12.8182L15.3703 17.5223C15.56 18.4355 14.5574 19.1268 13.7714 18.6249L10.1279 16.2985C9.78205 16.0777 9.33946 16.0777 8.99361 16.2985L5.35015 18.6249C4.56408 19.1268 3.56148 18.4355 3.75119 17.5223L4.72855 12.8182C4.80275 12.461 4.68698 12.0909 4.42249 11.8397L1.00221 8.59109C0.348852 7.97054 0.725164 6.8694 1.62165 6.77851L6.01339 6.33323C6.40354 6.29367 6.73946 6.04075 6.88532 5.67674L8.58252 1.44125Z" fill="#FFD600"/>
</svg>
